<?xml version="1.0" encoding="UTF-8"?>
<svg width="100%" height="100%" viewBox="0 0 40 40" version="1.1" xmlns="http://www.w3.org/2000/svg" xmlns:xlink="http://www.w3.org/1999/xlink">
    <!-- Generator: Sketch 50.2 (55047) - http://www.bohemiancoding.com/sketch -->
    <title>Weibo</title>
    <desc>Created with Sketch.</desc>
    <defs></defs>
    <g id="Weibo" stroke="none" stroke-width="1" fill="none" fill-rule="evenodd">
        <g fill-rule="nonzero">
            <g id="Sina_Weibo" transform="matrix(1,0,0,1,9.6,12.8)">
                <path transform="matrix(1.3,0,0,1.4,-2.4,-2.6)" d="M -2.6 11.3 C -2.6 14.6 1.7 17.3 7 17.3 C 12.3 17.3 16.6 14.6 16.6 11.3 C 16.6 7.9 12.3 5.3 7 5.3 C 1.7 5.3 -2.6 7.9 -2.6 11.3" id="Shape" fill="#ffffff"></path>
                <path transform="matrix(1.3,0,0,1.4,-2.5,-1.2)" d="M 7 16.1 C 2.3 16.6 -1.7 14.5 -2 11.3 C -2.3 8.2 1.2 5.3 5.9 4.8 C 10.6 4.4 14.7 6.5 15 9.6 C 15.3 12.8 11.7 15.7 7 16.1 M 16.5 5.8 C 16.1 5.7 15.8 5.6 16 5 C 16.4 3.9 16.5 2.9 16 2.2 C 15.1 0.8 12.5 0.9 9.7 2.1 C 9.7 2.1 8.7 2.5 9 1.8 C 9.4 0.4 9.4 -0.8 8.7 -1.5 C 7.1 -3.1 2.9 -1.5 -0.7 2.1 C -3.3 4.8 -4.9 7.7 -4.9 10.2 C -4.9 15 1.1 17.8 7 17.8 C 14.8 17.8 19.9 13.3 19.9 9.7 C 19.9 7.5 18.1 6.3 16.5 5.8" id="Shape" fill="#e6162d"></path>
                <path transform="matrix(1.3,0,0,1.4,-9.1,2.4)" d="M 26.2 -5.3 C 24.2 -7.3 21.4 -8.1 18.7 -7.6 C 18.1 -7.5 17.7 -6.9 17.8 -6.3 C 18 -5.7 18.6 -5.4 19.2 -5.5 C 21.1 -5.9 23.1 -5.3 24.5 -3.9 C 25.9 -2.4 26.2 -0.5 25.7 1.3 C 25.5 1.8 25.8 2.4 26.4 2.6 C 27 2.8 27.6 2.5 27.8 1.9 L 27.8 1.9 C 28.7 -0.5 28.1 -3.3 26.2 -5.3" id="Shape" fill="#ff9933"></path>
                <path transform="matrix(1.3,0,0,1.4,-8.2,1.5)" d="M 22.5 -2 C 21.5 -3 20 -3.4 18.7 -3.2 C 18.2 -3.1 17.8 -2.5 17.9 -2 C 18 -1.5 18.6 -1.2 19.1 -1.3 C 19.8 -1.4 20.5 -1.2 21 -0.7 C 21.5 -0.2 21.6 0.5 21.4 1.1 C 21.2 1.6 21.5 2.1 22 2.3 C 22.6 2.5 23.1 2.2 23.3 1.7 C 23.7 0.4 23.5 -1 22.5 -2" id="Shape" fill="#ff9933"></path>
                <path transform="matrix(1.3,0,0,1.4,-2,-3.2)" d="M 7.3 12.3 C 7.1 12.6 6.7 12.7 6.4 12.6 C 6.1 12.5 6.1 12.1 6.2 11.9 C 6.4 11.6 6.8 11.4 7.1 11.6 C 7.4 11.7 7.5 12 7.3 12.3 M 5.7 14.2 C 5.2 15 4.2 15.3 3.4 15 C 2.6 14.6 2.4 13.8 2.9 13 C 3.4 12.3 4.4 12 5.1 12.3 C 5.9 12.6 6.2 13.5 5.7 14.2 M 7.5 9 C 5.1 8.4 2.5 9.5 1.4 11.6 C 0.4 13.6 1.4 15.9 3.8 16.6 C 6.3 17.4 9.2 16.2 10.2 14 C 11.3 11.8 10 9.6 7.5 9" id="Shape" fill="#000000"></path>
            </g>
        </g>
    </g>
</svg>